<svg width="602" height="446" viewBox="0 0 602 446" fill="none" xmlns="http://www.w3.org/2000/svg">
<g clip-path="url(#clip0)">
<path d="M531.318 426.514C574.877 402.826 599.22 348.302 587.627 300.073C581.126 272.954 564.792 248.83 559.263 221.477C553.198 191.444 560.654 160.591 564.122 130.14C567.59 99.6895 565.998 65.8402 545.693 42.8723C527.063 21.7625 496.505 14.8989 468.426 16.9915C440.347 19.084 413.492 28.8103 386.201 35.7576C358.909 42.7049 329.641 46.8398 302.936 37.9004C274.539 28.4085 251.352 4.8379 221.682 0.652778C182.73 -4.85484 147.096 25.4454 127.545 59.5625C107.994 93.6797 98.5781 132.97 77.9714 166.467C57.6998 199.413 27.1583 225.796 11.0918 260.967C-14.0383 315.977 4.82605 387.442 53.813 422.915C210.96 425.526 374.239 423.902 531.318 426.514Z" fill="white"/>
<path d="M309.938 446C471.239 446 602 437.628 602 427.301C602 416.974 471.239 408.602 309.938 408.602C148.637 408.602 17.8759 416.974 17.8759 427.301C17.8759 437.628 148.637 446 309.938 446Z" fill="#EAEAEA"/>
<path d="M474.842 314.453H469.162V329.034L474.842 326.038V314.453Z" fill="#404F6D"/>
<path d="M469.162 329.034V427.301H474.842V326.038L469.162 329.034Z" fill="#C4D4D9"/>
<path d="M417.88 314.453H412.217V329.034L417.88 326.038V314.453Z" fill="#404F6D"/>
<path d="M412.217 329.034V418.83H417.88V326.038L412.217 329.034Z" fill="#96A4B2"/>
<path d="M545.692 314.453H540.029V329.034L545.692 326.038V314.453Z" fill="#404F6D"/>
<path d="M540.029 329.034V427.301H545.692V326.038L540.029 329.034Z" fill="#C4D4D9"/>
<path d="M488.747 314.453H483.068V329.034L488.747 326.038V314.453Z" fill="#404F6D"/>
<path d="M483.068 329.034V418.83H488.747V326.038L483.068 329.034Z" fill="#96A4B2"/>
<path d="M495.281 298.182H548.054L572.916 184.346C574.053 179.076 576.963 174.354 581.161 170.967C585.358 167.58 590.59 165.732 595.986 165.731H522.053C516.664 165.73 511.438 167.571 507.241 170.948C503.045 174.325 500.131 179.035 498.983 184.296L474.121 298.131H421.348C418.358 298.127 415.396 298.712 412.633 299.854C409.869 300.996 407.359 302.672 405.245 304.786C403.131 306.9 401.456 309.409 400.315 312.171C399.174 314.934 398.59 317.894 398.597 320.882H472.53C472.53 317.898 473.118 314.943 474.262 312.187C475.406 309.431 477.082 306.927 479.195 304.818C481.309 302.71 483.817 301.039 486.577 299.9C489.337 298.761 492.295 298.177 495.281 298.182Z" fill="#FAA85D"/>
<path d="M572.916 184.313L548.054 298.148H495.281C489.256 298.148 483.477 300.54 479.217 304.797C474.957 309.054 472.563 314.828 472.563 320.848H545.91C550.501 320.85 554.954 319.281 558.529 316.403C562.104 313.525 564.586 309.511 565.561 305.028L595.986 165.731C590.595 165.73 585.366 167.574 581.17 170.954C576.973 174.335 574.06 179.049 572.916 184.313Z" fill="#FFD16D"/>
<path d="M454 138.059C486.1 143.868 517.881 183.141 528.754 217.559C531.515 226.356 531.07 235.844 527.498 244.344L474.842 251.425L448.137 247.893L428.033 211.817L421.331 176.947L454 138.059Z" fill="#41A9C1"/>
<path d="M447.031 146.396L421.449 177.014L428.083 211.884L448.137 247.96L469.799 250.839V158.717L447.031 146.396Z" fill="#008199"/>
<path d="M485.279 211.918C485.186 211.917 485.096 211.881 485.028 211.817C484.969 211.75 484.936 211.664 484.936 211.575C484.936 211.485 484.969 211.399 485.028 211.332C490.769 205.877 494.435 198.599 495.398 190.741C495.404 190.697 495.419 190.654 495.442 190.616C495.465 190.578 495.495 190.544 495.531 190.518C495.567 190.491 495.608 190.472 495.651 190.462C495.694 190.451 495.739 190.449 495.783 190.456C495.827 190.46 495.869 190.473 495.907 190.494C495.946 190.515 495.979 190.544 496.006 190.579C496.033 190.613 496.052 190.653 496.063 190.695C496.073 190.738 496.075 190.782 496.068 190.825C495.088 198.84 491.351 206.267 485.497 211.834C485.437 211.888 485.36 211.918 485.279 211.918Z" fill="#422C4E"/>
<path d="M371.574 144.085C374.847 152.109 379.059 159.718 384.122 166.752L362.343 231.287C361.463 233.905 361.168 236.685 361.481 239.43C361.793 242.175 362.704 244.818 364.15 247.172C365.596 249.527 367.541 251.536 369.848 253.058C372.156 254.579 374.769 255.576 377.504 255.979C381.783 256.607 386.149 255.75 389.872 253.55C393.595 251.351 396.45 247.942 397.96 243.892L411.748 206.963L394.593 202.225L395.246 170.753V162.383L377.89 140.62L371.574 144.085Z" fill="#FCCAAF"/>
<path d="M411.815 206.963L394.66 202.225L395.246 162.416L411.815 171.088V206.963Z" fill="#008199"/>
<path d="M394.727 210.11L394.66 202.225L411.815 206.963L411.162 208.72L394.727 210.11Z" fill="#422C4E"/>
<path d="M417.545 175.624L429.289 179.81L433.276 153.577L420.293 153.828L417.545 175.624Z" fill="#F8A58F"/>
<path d="M427.698 172.979C429.392 169.146 429.694 164.842 428.552 160.809C427.883 158.338 426.922 155.955 425.687 153.711L420.293 153.828L417.545 175.591L423.627 177.75C425.358 176.521 426.757 174.882 427.698 172.979Z" fill="#422C4E"/>
<path d="M391.075 399.009C390.607 397.36 390.243 395.683 389.986 393.987L388.31 382.805H367.151L365.274 389.166C364.522 391.752 363.211 394.142 361.433 396.166C359.656 398.191 357.456 399.802 354.988 400.884L347.114 404.35C343.17 406.08 339.957 409.137 338.033 412.988H392.515C392.868 408.28 392.38 403.547 391.075 399.009Z" fill="#404F6D"/>
<path d="M338.033 412.921C337.098 414.773 336.487 416.772 336.224 418.83H391.695L392.03 416.989C392.264 415.649 392.415 414.277 392.515 412.921H338.033Z" fill="#F16358"/>
<path d="M365.827 387.224C371.875 395.176 385.58 391.694 388.964 387.224L388.294 382.754H367.151L365.827 387.224Z" fill="#422C4E"/>
<path d="M448.137 247.96L383.653 253.669C376.055 254.351 369.013 257.936 363.994 263.677C358.976 269.418 356.368 276.873 356.713 284.488L361.421 386.019C373.22 389.892 386.05 389.15 397.324 383.943L396.737 297.981L465.611 299.99L474.791 251.442L448.137 247.96Z" fill="#38496D"/>
<path d="M396.737 297.914V278.428L405.717 298.181L396.737 297.914Z" fill="#404F6D"/>
<path d="M429.172 149.777C431.998 140.313 431.958 130.224 429.055 120.783C428.267 117.93 426.974 115.243 425.235 112.848C423.478 110.445 420.926 108.742 418.031 108.043C416.539 107.705 414.985 107.755 413.519 108.188C412.052 108.622 410.721 109.425 409.654 110.521C408.133 108.354 406.149 106.552 403.844 105.247C401.54 103.941 398.973 103.165 396.331 102.975C393.689 102.784 391.038 103.183 388.57 104.144C386.101 105.105 383.878 106.602 382.061 108.529C379.59 111.552 377.466 114.842 375.729 118.339C373.752 121.687 371.239 125.035 367.637 126.525C365.392 127.462 362.611 127.897 361.471 130.057C361.098 131.066 361.073 132.172 361.4 133.198C361.728 134.223 362.39 135.109 363.281 135.715C364.983 136.915 366.947 137.689 369.01 137.975C367.357 139.034 365.966 140.454 364.939 142.127C364.44 142.975 364.207 143.953 364.27 144.934C364.333 145.916 364.688 146.857 365.291 147.634C366.443 148.652 367.91 149.243 369.446 149.308C372.748 149.78 376.094 149.859 379.414 149.543C387.674 148.89 395.866 154.331 404.142 153.912C412.598 153.332 420.979 151.948 429.172 149.777Z" fill="#793449"/>
<path d="M379.465 149.61L381.374 152.857C386.641 161.792 393.447 169.727 401.479 176.294C403.704 178.116 406.39 179.288 409.24 179.681C412.09 180.074 414.993 179.672 417.629 178.52C420.174 177.406 422.376 175.633 424.007 173.385C425.639 171.137 426.641 168.495 426.91 165.731V165.362C427.463 159.54 426.69 153.668 424.648 148.187C422.202 146.379 419.287 139.465 419.287 139.465C411.145 139.616 409.855 134.292 409.855 134.292C403.623 142.11 386.87 149.107 379.465 149.61Z" fill="#F8A58F"/>
<path d="M411.346 180.161C407.679 180.149 404.128 178.872 401.294 176.545C393.253 169.955 386.446 161.992 381.19 153.025L379.28 149.777C379.256 149.739 379.24 149.696 379.233 149.652C379.226 149.607 379.228 149.562 379.239 149.518C379.25 149.474 379.27 149.433 379.297 149.397C379.324 149.361 379.358 149.331 379.398 149.308C379.477 149.268 379.568 149.258 379.654 149.279C379.74 149.301 379.816 149.353 379.867 149.426L381.776 152.673C386.997 161.612 393.771 169.548 401.78 176.11C403.957 177.892 406.586 179.037 409.374 179.418C412.163 179.799 415.002 179.402 417.579 178.269C417.658 178.253 417.742 178.264 417.814 178.302C417.886 178.34 417.943 178.402 417.975 178.477C418.007 178.552 418.011 178.636 417.988 178.714C417.964 178.793 417.914 178.86 417.847 178.906C415.79 179.767 413.576 180.195 411.346 180.161Z" fill="#422C4E"/>
<path d="M427.614 140.62C428.696 139.73 430.021 139.187 431.417 139.063C432.116 139.005 432.82 139.117 433.467 139.388C434.114 139.659 434.687 140.081 435.136 140.62C435.621 141.479 435.91 142.435 435.983 143.419C436.055 144.403 435.909 145.391 435.555 146.312C435.047 148.238 434.339 150.106 433.444 151.886C432.91 153.082 432.141 154.158 431.182 155.05C430.701 155.498 430.122 155.829 429.492 156.018C428.861 156.207 428.196 156.248 427.547 156.139C424.917 155.569 423.962 150.782 423.945 148.522C423.924 147.014 424.242 145.521 424.878 144.153C425.513 142.785 426.448 141.577 427.614 140.62Z" fill="#F8A58F"/>
<path d="M428.267 153.828H428.066C427.43 153.694 426.391 151.016 426.391 148.505C426.37 147.362 426.606 146.228 427.082 145.188C427.557 144.148 428.26 143.228 429.138 142.495C429.84 141.899 430.703 141.526 431.618 141.424H431.752C432.042 141.411 432.332 141.461 432.601 141.571C432.87 141.681 433.112 141.848 433.31 142.06C433.561 142.636 433.69 143.257 433.69 143.885C433.69 144.512 433.561 145.134 433.31 145.709C432.837 147.478 432.186 149.194 431.367 150.832C430.964 151.738 430.395 152.561 429.691 153.259C429.295 153.605 428.793 153.806 428.267 153.828Z" fill="#F48885"/>
<path d="M419.807 168.426L428.083 211.951L429.859 195.094L460.333 200.718L455.123 240.109C454.355 245.898 451.51 251.211 447.115 255.06C442.721 258.909 437.076 261.032 431.233 261.034C424.976 261.029 418.966 258.593 414.474 254.241C409.981 249.89 407.358 243.964 407.158 237.715L405.03 176.394C395.715 170.026 388.544 160.993 384.457 150.48C384.047 149.37 384.027 148.153 384.402 147.03C384.776 145.907 385.523 144.945 386.518 144.303L386.35 143.617C386.126 142.737 386.223 141.806 386.626 140.993C387.028 140.179 387.709 139.536 388.545 139.18L389.483 138.779V138.561C389.247 137.765 389.315 136.91 389.674 136.161C390.033 135.413 390.658 134.824 391.427 134.51C392.125 134.252 392.889 134.233 393.599 134.458C394.309 134.682 394.924 135.136 395.347 135.749L395.665 136.217L397.709 135.096C398.479 134.666 399.382 134.539 400.241 134.741C401.099 134.942 401.851 135.457 402.35 136.184C409.487 146.446 414.596 155.837 414.596 155.837C415.024 153.474 415.024 151.053 414.596 148.689C414.339 147.174 414.65 145.618 415.469 144.318C416.288 143.017 417.558 142.064 419.036 141.641C424.632 153.058 419.807 168.426 419.807 168.426Z" fill="#FCCAAF"/>
<path d="M431.233 261.302C424.891 261.323 418.791 258.869 414.232 254.464C409.673 250.058 407.015 244.049 406.823 237.715L404.695 176.579C395.41 170.182 388.251 161.158 384.139 150.664C383.706 149.512 383.672 148.247 384.042 147.073C384.413 145.898 385.166 144.882 386.183 144.186L386.065 143.734C385.834 142.771 385.957 141.757 386.412 140.878C386.868 139.999 387.625 139.313 388.545 138.946L389.198 138.661C388.967 137.833 389.038 136.949 389.397 136.167C389.757 135.386 390.383 134.757 391.163 134.393C391.943 134.03 392.828 133.955 393.658 134.181C394.489 134.408 395.212 134.922 395.699 135.631L395.833 135.849L397.609 134.861C398.446 134.406 399.422 134.276 400.349 134.495C401.276 134.715 402.09 135.268 402.635 136.05C408.465 144.42 413.005 152.322 414.362 154.883C414.629 152.868 414.578 150.823 414.211 148.823C413.938 147.226 414.264 145.585 415.126 144.214C415.989 142.842 417.327 141.837 418.885 141.39C418.961 141.366 419.044 141.369 419.117 141.4C419.191 141.43 419.251 141.486 419.287 141.558C424.682 152.539 420.494 167.288 420.125 168.526L433.126 236.794C433.135 236.838 433.136 236.884 433.128 236.928C433.12 236.972 433.102 237.015 433.077 237.052C433.052 237.09 433.02 237.122 432.982 237.146C432.944 237.171 432.902 237.188 432.858 237.196C432.771 237.211 432.682 237.191 432.61 237.141C432.538 237.091 432.489 237.014 432.472 236.928L419.438 168.577C419.43 168.521 419.43 168.465 419.438 168.409C419.438 168.259 424.096 153.259 418.785 142.11C417.453 142.564 416.327 143.477 415.608 144.686C414.889 145.895 414.626 147.32 414.864 148.706C415.3 151.102 415.3 153.558 414.864 155.954C414.852 156.025 414.818 156.091 414.767 156.141C414.716 156.192 414.651 156.226 414.58 156.239C414.509 156.247 414.438 156.234 414.375 156.201C414.313 156.168 414.261 156.117 414.228 156.055C414.228 156.055 409.051 146.58 401.998 136.435C401.545 135.782 400.865 135.321 400.091 135.142C399.317 134.962 398.504 135.077 397.81 135.464L395.766 136.586C395.689 136.625 395.601 136.635 395.517 136.613C395.434 136.591 395.361 136.54 395.313 136.468L394.995 136.016C394.628 135.452 394.078 135.032 393.436 134.828C392.795 134.624 392.103 134.647 391.477 134.895C390.794 135.182 390.243 135.714 389.933 136.386C389.623 137.058 389.576 137.822 389.801 138.528V138.745C389.826 138.825 389.82 138.912 389.787 138.988C389.753 139.065 389.693 139.127 389.617 139.164L388.662 139.565C387.902 139.888 387.282 140.473 386.916 141.213C386.55 141.953 386.462 142.8 386.669 143.6L386.853 144.286C386.866 144.356 386.858 144.427 386.831 144.493C386.805 144.558 386.76 144.614 386.702 144.655C385.751 145.245 385.035 146.147 384.674 147.206C384.314 148.265 384.332 149.416 384.725 150.464C388.84 160.893 396.011 169.838 405.298 176.127C405.339 176.159 405.372 176.199 405.395 176.246C405.418 176.292 405.431 176.343 405.432 176.394L407.51 237.715C407.737 243.65 410.183 249.284 414.365 253.505C418.546 257.727 424.16 260.228 430.097 260.516C436.034 260.804 441.863 258.858 446.434 255.061C451.005 251.265 453.986 245.894 454.788 240.008L458.005 215.668C458.018 215.579 458.066 215.499 458.138 215.446C458.21 215.392 458.301 215.37 458.39 215.383C458.479 215.396 458.559 215.444 458.612 215.517C458.665 215.589 458.688 215.679 458.675 215.768L455.458 240.092C454.665 245.955 451.775 251.333 447.321 255.232C442.868 259.13 437.153 261.287 431.233 261.302Z" fill="#422C4E"/>
<path d="M392.985 158.03C392.933 158.029 392.882 158.016 392.836 157.993C392.789 157.97 392.749 157.937 392.716 157.896C389.877 153.788 387.68 149.272 386.199 144.504C386.182 144.461 386.173 144.415 386.174 144.368C386.175 144.322 386.186 144.276 386.205 144.234C386.225 144.192 386.253 144.155 386.288 144.124C386.323 144.093 386.364 144.07 386.408 144.056C386.452 144.042 386.499 144.038 386.545 144.043C386.591 144.048 386.636 144.062 386.676 144.086C386.717 144.109 386.752 144.14 386.779 144.177C386.807 144.215 386.826 144.258 386.836 144.303C388.29 149.022 390.453 153.493 393.253 157.561C393.315 157.627 393.35 157.714 393.35 157.804C393.35 157.895 393.315 157.981 393.253 158.047C393.164 158.068 393.07 158.062 392.985 158.03Z" fill="#422C4E"/>
<path d="M397.123 154.347C397.065 154.345 397.009 154.328 396.959 154.299C396.91 154.27 396.868 154.229 396.838 154.18C393.809 149.36 391.256 144.258 389.215 138.946C389.199 138.903 389.193 138.858 389.195 138.812C389.198 138.767 389.21 138.722 389.23 138.681C389.25 138.641 389.279 138.604 389.314 138.575C389.349 138.546 389.389 138.524 389.433 138.511C389.474 138.495 389.519 138.489 389.563 138.491C389.608 138.494 389.651 138.506 389.691 138.527C389.73 138.547 389.765 138.576 389.792 138.61C389.82 138.645 389.84 138.685 389.852 138.728C391.882 144.012 394.412 149.091 397.407 153.895C397.452 153.969 397.467 154.057 397.448 154.141C397.429 154.226 397.379 154.299 397.307 154.347C397.248 154.37 397.182 154.37 397.123 154.347Z" fill="#422C4E"/>
<path d="M403.288 150.53C403.226 150.529 403.165 150.511 403.112 150.479C403.059 150.447 403.016 150.401 402.986 150.346C402.986 150.346 399.535 143.382 395.347 136.385C395.307 136.306 395.296 136.215 395.318 136.128C395.339 136.042 395.391 135.967 395.464 135.916C395.502 135.892 395.545 135.876 395.59 135.869C395.634 135.862 395.68 135.864 395.724 135.875C395.767 135.886 395.809 135.905 395.845 135.932C395.881 135.96 395.911 135.994 395.933 136.033C400.138 143.064 403.556 149.978 403.606 150.045C403.641 150.127 403.643 150.22 403.612 150.304C403.581 150.388 403.519 150.457 403.439 150.497C403.393 150.524 403.34 150.535 403.288 150.53Z" fill="#422C4E"/>
<path d="M429.859 195.027L460.333 200.651L459.362 208.067H428.485L429.859 195.027Z" fill="#422C4E"/>
<path d="M426.324 199.463L463.5 207.163L469.799 158.716C470.437 153.885 469.133 148.998 466.171 145.126C463.21 141.254 458.833 138.712 454 138.059C449.198 137.402 444.33 138.663 440.451 141.567C436.572 144.472 433.994 148.787 433.277 153.577L426.324 199.463Z" fill="#41A9C1"/>
<path d="M463.5 207.582L461.523 207.18C461.435 207.16 461.359 207.107 461.309 207.033C461.259 206.958 461.24 206.867 461.255 206.779C461.275 206.691 461.328 206.615 461.402 206.565C461.477 206.515 461.568 206.496 461.657 206.511L463.332 206.845L469.581 158.767C470.075 155.212 469.491 151.591 467.906 148.371C467.871 148.288 467.869 148.196 467.9 148.112C467.931 148.028 467.993 147.959 468.073 147.919C468.113 147.899 468.156 147.887 468.2 147.884C468.244 147.88 468.289 147.886 468.331 147.9C468.373 147.914 468.412 147.936 468.445 147.965C468.479 147.994 468.506 148.03 468.526 148.07C470.18 151.406 470.81 155.157 470.335 158.851L464.019 207.297C464.013 207.345 463.997 207.391 463.971 207.432C463.945 207.473 463.909 207.507 463.868 207.532C463.818 207.574 463.756 207.601 463.691 207.61C463.626 207.618 463.56 207.609 463.5 207.582Z" fill="#422C4E"/>
<path d="M426.324 199.814C426.28 199.808 426.237 199.793 426.199 199.771C426.16 199.748 426.127 199.718 426.1 199.682C426.074 199.646 426.055 199.605 426.044 199.562C426.034 199.518 426.032 199.473 426.039 199.429L431.517 163.203C431.533 163.114 431.583 163.035 431.657 162.983C431.731 162.932 431.822 162.911 431.911 162.927C432 162.942 432.079 162.993 432.131 163.066C432.183 163.14 432.203 163.231 432.187 163.32L426.709 199.53C426.693 199.617 426.644 199.695 426.572 199.748C426.501 199.801 426.412 199.824 426.324 199.814Z" fill="#422C4E"/>
<path d="M431.149 409.271C429.841 405.025 429.175 400.607 429.172 396.164V390.053H406.304L405.064 395.159C404.287 398.404 402.755 401.421 400.592 403.963C398.429 406.505 395.696 408.502 392.616 409.79C387.545 411.925 383.499 415.939 381.324 420.99H433.075C432.955 417.016 432.307 413.075 431.149 409.271Z" fill="#404F6D"/>
<path d="M381.324 420.99C380.564 422.748 380.045 424.6 379.783 426.497L379.666 427.301H433.126V422.379C433.126 421.91 433.126 421.458 433.126 420.99H381.324Z" fill="#F16358"/>
<path d="M405.064 395.159C412.318 405.522 425.436 401.973 429.172 396.164V390.053H406.304L405.064 395.159Z" fill="#422C4E"/>
<path d="M527.498 244.411L434.985 256.866C427.362 257.891 420.333 261.536 415.106 267.175C409.878 272.814 406.778 280.095 406.337 287.769L400.272 391.928C417.143 402.575 438.453 394.289 438.453 394.289L445.842 299.99H493.22C498.026 299.99 502.781 299.011 507.194 297.113C511.608 295.214 515.588 292.436 518.891 288.948C522.193 285.46 524.749 281.335 526.402 276.827C528.054 272.318 528.769 267.52 528.503 262.725L527.498 244.411Z" fill="#38496D"/>
<path d="M445.842 299.99L447.517 278.428C449.232 280.435 450.447 282.819 451.065 285.385C451.682 287.951 451.683 290.626 451.069 293.193C450.985 293.531 450.976 293.884 451.041 294.226C451.106 294.569 451.244 294.893 451.446 295.178C451.648 295.462 451.909 295.7 452.211 295.874C452.513 296.049 452.849 296.156 453.196 296.189L493.203 299.99H445.842Z" fill="#404F6D"/>
<path d="M404.812 314.336C404.768 314.334 404.725 314.323 404.685 314.304C404.646 314.285 404.61 314.259 404.58 314.226C404.551 314.194 404.528 314.155 404.513 314.114C404.498 314.072 404.492 314.028 404.494 313.984L406.019 287.752C406.473 280.001 409.609 272.649 414.89 266.953C420.171 261.258 427.269 257.574 434.969 256.531L461.506 252.965C461.55 252.956 461.596 252.956 461.641 252.965C461.685 252.975 461.727 252.993 461.763 253.02C461.8 253.047 461.83 253.082 461.852 253.121C461.874 253.161 461.888 253.205 461.891 253.25C461.898 253.294 461.897 253.339 461.886 253.382C461.876 253.426 461.857 253.466 461.83 253.502C461.803 253.538 461.77 253.568 461.732 253.591C461.693 253.614 461.651 253.629 461.606 253.635L435.069 257.201C427.528 258.227 420.577 261.837 415.404 267.416C410.23 272.994 407.156 280.194 406.706 287.786L405.181 314.018C405.172 314.108 405.129 314.192 405.061 314.251C404.992 314.31 404.903 314.341 404.812 314.336Z" fill="#422C4E"/>
<path d="M517.68 290.498C517.634 290.499 517.587 290.491 517.544 290.474C517.501 290.457 517.461 290.431 517.429 290.397C517.396 290.367 517.37 290.331 517.353 290.291C517.335 290.251 517.326 290.207 517.326 290.163C517.326 290.119 517.335 290.075 517.353 290.035C517.37 289.995 517.396 289.958 517.429 289.929C521.071 286.44 523.915 282.206 525.766 277.516C527.617 272.827 528.43 267.792 528.151 262.759L527.146 244.428C527.141 244.337 527.172 244.248 527.231 244.18C527.29 244.111 527.374 244.068 527.464 244.06C527.51 244.057 527.555 244.064 527.598 244.08C527.64 244.096 527.679 244.12 527.712 244.152C527.745 244.183 527.771 244.221 527.789 244.262C527.807 244.304 527.816 244.349 527.816 244.394L528.838 262.708C529.121 267.842 528.29 272.975 526.402 277.757C524.513 282.539 521.612 286.857 517.898 290.414C517.839 290.468 517.761 290.498 517.68 290.498Z" fill="#422C4E"/>
<path d="M441.888 350.814C441.844 350.809 441.801 350.797 441.762 350.776C441.723 350.755 441.688 350.727 441.66 350.692C441.632 350.658 441.611 350.619 441.598 350.576C441.586 350.534 441.582 350.489 441.586 350.445L447.232 278.461C447.231 278.415 447.241 278.369 447.26 278.327C447.279 278.284 447.307 278.247 447.342 278.217C447.377 278.186 447.419 278.164 447.463 278.151C447.508 278.139 447.555 278.136 447.601 278.143C447.645 278.147 447.688 278.16 447.727 278.181C447.766 278.202 447.8 278.23 447.828 278.264C447.856 278.299 447.877 278.338 447.89 278.381C447.903 278.423 447.907 278.467 447.902 278.511L442.256 350.496C442.248 350.586 442.205 350.669 442.136 350.729C442.067 350.788 441.978 350.818 441.888 350.814Z" fill="#422C4E"/>
<path d="M394.224 231.521C394.135 231.521 394.05 231.486 393.987 231.423C393.924 231.36 393.889 231.275 393.889 231.186L394.66 179.81C394.66 179.721 394.695 179.636 394.758 179.573C394.821 179.51 394.906 179.475 394.995 179.475C395.084 179.475 395.169 179.51 395.232 179.573C395.295 179.636 395.33 179.721 395.33 179.81L394.559 231.203C394.559 231.246 394.551 231.289 394.534 231.329C394.517 231.368 394.492 231.404 394.46 231.434C394.429 231.464 394.392 231.487 394.351 231.502C394.311 231.517 394.268 231.523 394.224 231.521Z" fill="#422C4E"/>
<path d="M154.902 314.453H160.565V329.034L154.902 326.038V314.453Z" fill="#404F6D"/>
<path d="M160.565 329.034V427.301H154.902V326.038L160.565 329.034Z" fill="#C4D4D9"/>
<path d="M211.847 314.453H217.526V329.034L211.847 326.038V314.453Z" fill="#404F6D"/>
<path d="M217.526 329.034V418.83H211.847V326.038L217.526 329.034Z" fill="#96A4B2"/>
<path d="M84.0351 314.453H89.7145V329.034L84.0351 326.038V314.453Z" fill="#404F6D"/>
<path d="M89.7145 329.034V427.301H84.0351V326.038L89.7145 329.034Z" fill="#C4D4D9"/>
<path d="M140.997 314.453H146.659V329.034L140.997 326.038V314.453Z" fill="#404F6D"/>
<path d="M146.659 329.034V418.83H140.997V326.038L146.659 329.034Z" fill="#96A4B2"/>
<path d="M134.446 298.182H81.6728L56.8275 184.313C55.6836 179.049 52.7711 174.335 48.5741 170.954C44.3772 167.574 39.1488 165.73 33.7581 165.731H107.691C113.076 165.733 118.299 167.576 122.492 170.953C126.685 174.33 129.597 179.038 130.744 184.296L155.606 298.131H208.379C211.364 298.136 214.318 298.728 217.074 299.874C219.829 301.02 222.332 302.697 224.439 304.81C226.545 306.922 228.215 309.429 229.351 312.187C230.488 314.945 231.07 317.899 231.063 320.882H157.164C157.164 314.861 154.77 309.087 150.51 304.83C146.249 300.573 140.471 298.182 134.446 298.182Z" fill="#FAA85D"/>
<path d="M56.8275 184.313L81.6896 298.148H134.463C140.488 298.148 146.266 300.54 150.527 304.797C154.787 309.054 157.18 314.828 157.18 320.848H83.8173C79.2263 320.85 74.773 319.281 71.1979 316.403C67.6228 313.525 65.1411 309.511 64.1655 305.028L33.7581 165.731C39.1488 165.73 44.3772 167.574 48.5741 170.954C52.7711 174.335 55.6836 179.049 56.8275 184.313Z" fill="#FFD16D"/>
<path d="M231.063 108.713C235.092 106.12 238.613 102.812 241.45 98.9529C242.853 97.0153 243.844 94.8112 244.363 92.4763C244.882 90.1415 244.917 87.7252 244.466 85.3764C243.939 83.0295 242.683 80.909 240.878 79.3184C239.072 77.7278 236.81 76.7485 234.414 76.5207C233.341 76.5207 229.136 72.0677 227.712 71.2977C224.953 69.7826 222.086 68.4733 219.135 67.3804C210.814 64.3789 201.657 64.6816 193.553 68.226C185.449 71.7704 179.014 78.2865 175.576 86.4311C170.198 99.1203 172.543 114.522 165.205 126.19C155.656 141.256 133.273 144.604 124.394 160.106C122.599 163.296 121.485 166.823 121.121 170.465C120.758 174.107 121.154 177.784 122.283 181.266C124.394 187.594 128.783 190.975 133.123 195.646C135.636 198.358 140.109 204.97 144.615 204.016C148.201 203.229 154.5 192.449 156.862 189.536C160.933 184.514 164.92 179.374 168.925 174.268C184.857 153.929 200.756 133.137 220.86 116.53C224.144 113.835 227.528 111.157 231.063 108.713Z" fill="#BE4F5B"/>
<path d="M298.16 411.682L297.926 411.531L289.281 405.304L277.235 371.321L254.149 368.977L269.06 407.33L267.518 416.453H295.295C295.819 414.641 296.807 412.996 298.16 411.682Z" fill="#FCCAAF"/>
<path d="M306.152 414.026C303.318 414.025 300.545 413.212 298.16 411.682C296.807 412.996 295.819 414.641 295.295 416.453H267.518L266.262 423.919H320.107C319.096 421.027 317.209 418.521 314.709 416.749C312.208 414.976 309.218 414.024 306.152 414.026Z" fill="#422C4E"/>
<path d="M320.107 423.919H266.245L265.675 427.267H320.962L320.71 425.945C320.551 425.258 320.35 424.581 320.107 423.919Z" fill="#FFEFD2"/>
<path d="M280.586 380.762C277.554 391.895 266.245 400.098 266.245 400.098L254.132 368.944L277.219 371.287L280.586 380.762Z" fill="#422C4E"/>
<path d="M238.585 396.582C261.001 401.604 269.076 382.771 287.07 374.953L264.117 295.018C262.273 288.586 258.783 282.746 253.991 278.072C249.199 273.399 243.272 270.054 236.793 268.367L231.465 266.977L238.585 396.582Z" fill="#435478"/>
<path d="M245.722 397.737C243.298 397.721 240.882 397.44 238.518 396.9C238.447 396.886 238.382 396.849 238.334 396.794C238.285 396.74 238.256 396.671 238.25 396.599L237.496 383.006C237.494 382.96 237.501 382.915 237.517 382.872C237.533 382.83 237.557 382.791 237.588 382.758C237.62 382.725 237.657 382.699 237.699 382.681C237.741 382.663 237.786 382.654 237.831 382.654C237.916 382.658 237.997 382.692 238.058 382.75C238.12 382.809 238.158 382.888 238.166 382.972L238.904 396.364C243.541 397.458 248.378 397.377 252.976 396.13C253.019 396.117 253.064 396.113 253.109 396.118C253.153 396.123 253.196 396.137 253.235 396.159C253.274 396.181 253.309 396.21 253.336 396.246C253.364 396.281 253.384 396.321 253.395 396.364C253.408 396.407 253.412 396.452 253.407 396.497C253.402 396.541 253.388 396.584 253.366 396.623C253.344 396.662 253.315 396.696 253.28 396.724C253.244 396.751 253.204 396.771 253.161 396.783C250.736 397.436 248.234 397.757 245.722 397.737Z" fill="#422C4E"/>
<path d="M282.998 360.858C282.924 360.86 282.852 360.835 282.794 360.79C282.736 360.744 282.696 360.679 282.68 360.607L273.265 327.862C273.244 327.776 273.256 327.685 273.299 327.607C273.343 327.529 273.414 327.471 273.499 327.444C273.542 327.431 273.587 327.427 273.632 327.432C273.676 327.437 273.719 327.451 273.758 327.473C273.797 327.495 273.831 327.524 273.859 327.559C273.886 327.595 273.907 327.635 273.918 327.678L283.333 360.423C283.346 360.465 283.35 360.511 283.345 360.555C283.34 360.599 283.326 360.642 283.305 360.681C283.283 360.72 283.253 360.755 283.218 360.782C283.183 360.809 283.142 360.83 283.099 360.841L282.998 360.858Z" fill="#422C4E"/>
<path d="M269.127 312.863C269.054 312.859 268.985 312.833 268.928 312.788C268.871 312.743 268.829 312.681 268.808 312.612L263.782 295.118C263.77 295.075 263.766 295.03 263.771 294.986C263.776 294.941 263.789 294.898 263.811 294.859C263.833 294.82 263.863 294.786 263.898 294.759C263.933 294.731 263.974 294.711 264.017 294.699C264.06 294.684 264.105 294.678 264.151 294.682C264.196 294.686 264.24 294.699 264.28 294.721C264.319 294.744 264.354 294.774 264.381 294.811C264.408 294.847 264.426 294.889 264.436 294.934L269.462 312.428C269.474 312.47 269.478 312.515 269.473 312.56C269.468 312.604 269.455 312.647 269.433 312.686C269.411 312.725 269.381 312.76 269.346 312.787C269.311 312.814 269.27 312.835 269.227 312.846L269.127 312.863Z" fill="#422C4E"/>
<path d="M199.231 215.952L205.145 213.893C208.647 212.677 211.664 210.369 213.754 207.31C215.845 204.251 216.897 200.603 216.756 196.901L216.437 188.682L224.948 175.407C226.573 172.862 227.439 169.908 227.444 166.89C227.45 163.872 226.595 160.915 224.979 158.365C223.364 155.814 221.055 153.777 218.323 152.49C215.591 151.203 212.548 150.721 209.552 151.1L202.85 151.937L158.202 151.619C144.682 165.011 136.523 188.23 132.452 202.995C130.186 211.251 125.424 218.606 118.815 224.055C113.924 228.026 109.531 232.573 105.731 237.598L182.16 249.316L199.231 215.952Z" fill="#F16358"/>
<path d="M153.612 168.627L170.282 247.508L182.143 249.316L188.593 236.644L153.612 168.627Z" fill="#D63E3C"/>
<path d="M216.353 188.665L215.7 171.992L219.386 183.928L216.353 188.665Z" fill="#E5E4E1"/>
<path d="M216.672 197.22C216.629 197.222 216.585 197.215 216.545 197.2C216.504 197.185 216.467 197.162 216.436 197.133C216.404 197.103 216.379 197.067 216.362 197.027C216.345 196.988 216.337 196.945 216.337 196.902L215.365 172.008C215.365 171.921 215.397 171.836 215.456 171.771C215.515 171.706 215.596 171.665 215.683 171.657C215.728 171.649 215.775 171.652 215.818 171.665C215.862 171.677 215.903 171.7 215.937 171.73C215.971 171.761 215.997 171.799 216.014 171.841C216.031 171.884 216.038 171.929 216.035 171.975L217.007 196.868C217.009 196.912 217.003 196.956 216.988 196.998C216.973 197.039 216.95 197.077 216.921 197.11C216.891 197.143 216.855 197.169 216.816 197.188C216.776 197.207 216.733 197.217 216.689 197.22H216.672Z" fill="#422C4E"/>
<path d="M150.312 222.648C150.245 222.664 150.177 222.664 150.11 222.648C144.83 219.064 140.709 214.021 138.249 208.134C138.216 208.052 138.217 207.96 138.251 207.879C138.286 207.797 138.351 207.733 138.433 207.699C138.518 207.665 138.612 207.666 138.697 207.7C138.781 207.734 138.849 207.8 138.886 207.883C141.29 213.644 145.325 218.578 150.496 222.079C150.558 222.118 150.606 222.176 150.633 222.245C150.659 222.313 150.662 222.389 150.641 222.459C150.62 222.53 150.576 222.591 150.517 222.635C150.457 222.678 150.385 222.7 150.312 222.699V222.648Z" fill="#422C4E"/>
<path d="M197.456 157.645V167.02L207.575 138.36L194.289 125.219L183.919 142.813L197.456 157.645Z" fill="#FCCAAF"/>
<path d="M194.289 125.219C196.718 142.227 200.655 143.633 205.212 145.09L207.575 138.394L194.289 125.219Z" fill="#422C4E"/>
<path d="M181.908 140.603L197.456 157.645L187.906 172.745L176.564 148.505L181.908 140.603Z" fill="#F16358"/>
<path d="M197.456 167.02L206.402 156.674L202.247 153.477L197.456 167.02Z" fill="#F16358"/>
<path d="M206.402 156.674L207.575 169.363L201.61 162.199L206.402 156.674Z" fill="#E5E4E1"/>
<path d="M187.906 173.08C187.844 173.078 187.784 173.058 187.734 173.022C187.683 172.986 187.644 172.936 187.621 172.879L179.898 156.356C179.874 156.316 179.859 156.271 179.853 156.225C179.847 156.179 179.852 156.132 179.865 156.087C179.879 156.042 179.902 156.001 179.932 155.966C179.963 155.93 180 155.902 180.043 155.882C180.085 155.862 180.131 155.851 180.178 155.85C180.224 155.849 180.271 155.857 180.314 155.875C180.357 155.893 180.396 155.92 180.428 155.954C180.461 155.987 180.485 156.028 180.501 156.071L187.973 172.042L197.07 157.679L182.679 141.926C182.617 141.86 182.582 141.773 182.582 141.683C182.582 141.593 182.617 141.506 182.679 141.44C182.709 141.408 182.745 141.382 182.786 141.364C182.826 141.346 182.87 141.337 182.914 141.337C182.958 141.337 183.001 141.346 183.042 141.364C183.082 141.382 183.118 141.408 183.148 141.44L197.707 157.377C197.75 157.435 197.774 157.506 197.774 157.578C197.774 157.651 197.75 157.721 197.707 157.779L188.141 172.845C188.124 172.901 188.094 172.951 188.053 172.992C188.012 173.033 187.962 173.063 187.906 173.08Z" fill="#422C4E"/>
<path d="M198.545 166.099C198.465 166.093 198.39 166.064 198.327 166.015C198.268 165.948 198.235 165.862 198.235 165.773C198.235 165.683 198.268 165.597 198.327 165.53L205.95 156.724L203.085 154.515C203.052 154.485 203.026 154.449 203.009 154.408C202.991 154.368 202.982 154.324 202.982 154.28C202.982 154.236 202.991 154.193 203.009 154.152C203.026 154.112 203.052 154.076 203.085 154.046C203.149 153.988 203.233 153.956 203.319 153.956C203.406 153.956 203.489 153.988 203.554 154.046L206.704 156.473C206.745 156.497 206.779 156.531 206.802 156.572C206.826 156.614 206.838 156.66 206.838 156.708C206.857 156.747 206.867 156.79 206.867 156.833C206.867 156.877 206.857 156.92 206.838 156.959L198.997 166.049C198.935 166.102 198.859 166.135 198.779 166.144C198.698 166.153 198.616 166.137 198.545 166.099Z" fill="#422C4E"/>
<path d="M207.608 169.698C207.56 169.698 207.513 169.687 207.47 169.667C207.426 169.647 207.388 169.617 207.357 169.581L201.359 162.383C201.297 162.317 201.262 162.23 201.262 162.14C201.262 162.05 201.297 161.963 201.359 161.897C201.425 161.835 201.512 161.8 201.602 161.8C201.693 161.8 201.78 161.835 201.845 161.897L207.106 168.208L206.033 156.607C206.033 156.518 206.069 156.433 206.131 156.371C206.194 156.308 206.28 156.272 206.368 156.272C206.457 156.272 206.543 156.308 206.605 156.371C206.668 156.433 206.703 156.518 206.703 156.607L207.876 169.297C207.885 169.367 207.87 169.438 207.833 169.498C207.797 169.559 207.741 169.606 207.675 169.631L207.608 169.698Z" fill="#422C4E"/>
<path d="M234.816 117.451C236.96 105.733 238.166 94.0145 236.809 87.084C234.749 95.4542 222.133 104.26 206.201 107.424L202.582 113.919C201.364 116.116 199.33 117.745 196.919 118.456L195.244 118.924L193.82 124.599C195.335 128.086 197.128 131.444 199.181 134.644C201.097 137.701 203.879 140.121 207.174 141.595C210.469 143.07 214.128 143.532 217.687 142.924C221.245 142.316 224.543 140.664 227.16 138.18C229.777 135.695 231.597 132.489 232.386 128.969C232.386 128.768 232.386 128.567 232.52 128.366L234.832 128.533C235.036 128.546 235.24 128.513 235.429 128.436C235.618 128.359 235.787 128.241 235.924 128.09C236.061 127.938 236.162 127.758 236.219 127.563C236.277 127.367 236.29 127.161 236.257 126.96L234.816 117.451Z" fill="#FCCAAF"/>
<path d="M196.618 113.35C196.199 111.934 195.492 110.62 194.541 109.491C193.589 108.361 192.414 107.441 191.089 106.788C189.745 106.168 188.242 105.98 186.787 106.25C185.332 106.52 183.996 107.234 182.964 108.294C182.304 109.141 181.828 110.115 181.565 111.156C181.303 112.196 181.26 113.28 181.439 114.338C181.814 116.456 182.587 118.484 183.718 120.314C184.596 122.029 185.776 123.571 187.203 124.867C190.101 127.311 194.825 127.328 196.919 123.762C198.478 121.117 197.556 116.028 196.618 113.35Z" fill="#FCCAAF"/>
<path d="M191.86 122.808C191.044 122.79 190.258 122.494 189.632 121.971C188.563 120.96 187.678 119.77 187.018 118.456C186.125 117.038 185.505 115.465 185.192 113.819C185.092 113.294 185.097 112.754 185.206 112.232C185.315 111.709 185.527 111.213 185.829 110.772C186.117 110.489 186.461 110.268 186.839 110.124C187.216 109.98 187.62 109.915 188.023 109.935C188.553 109.937 189.077 110.045 189.565 110.253C190.403 110.695 191.143 111.303 191.739 112.04C192.335 112.777 192.775 113.627 193.033 114.538C194.038 117.602 194.189 120.933 193.653 121.854C193.479 122.17 193.216 122.428 192.898 122.597C192.58 122.767 192.219 122.84 191.86 122.808Z" fill="#F8A58F"/>
<path d="M223.926 107.039C222.626 107.039 221.343 107.341 220.18 107.922C219.017 108.503 218.005 109.347 217.225 110.387H230.627C229.847 109.347 228.835 108.503 227.672 107.922C226.509 107.341 225.226 107.039 223.926 107.039Z" fill="#BE4F5B"/>
<path d="M223.926 116.731C224.953 116.731 225.786 115.899 225.786 114.873C225.786 113.847 224.953 113.015 223.926 113.015C222.899 113.015 222.066 113.847 222.066 114.873C222.066 115.899 222.899 116.731 223.926 116.731Z" fill="#422C4E"/>
<path d="M228.131 131.999C223.367 130.939 218.517 130.312 213.639 130.124C214.064 131.59 214.881 132.913 216.003 133.948C217.125 134.984 218.509 135.693 220.006 136C221.591 136.095 223.174 135.776 224.599 135.075C226.024 134.373 227.241 133.313 228.131 131.999Z" fill="#F16358"/>
<path d="M235 128.902H234.866L230.594 128.6C230.503 128.592 230.42 128.549 230.361 128.48C230.301 128.411 230.271 128.323 230.276 128.232C230.288 128.143 230.332 128.062 230.4 128.004C230.468 127.945 230.554 127.913 230.644 127.914L234.916 128.232C235.07 128.243 235.223 128.218 235.366 128.16C235.508 128.102 235.635 128.012 235.737 127.897C235.842 127.787 235.919 127.654 235.962 127.509C236.006 127.363 236.015 127.21 235.988 127.06L235.184 122.038C235.178 121.994 235.18 121.949 235.191 121.906C235.201 121.863 235.22 121.822 235.247 121.787C235.273 121.751 235.307 121.721 235.345 121.698C235.383 121.675 235.425 121.66 235.469 121.653C235.513 121.646 235.558 121.649 235.601 121.659C235.644 121.67 235.685 121.689 235.721 121.716C235.757 121.742 235.787 121.775 235.81 121.813C235.833 121.851 235.848 121.894 235.854 121.938L236.659 126.96C236.7 127.211 236.684 127.468 236.612 127.711C236.539 127.955 236.412 128.179 236.24 128.366C236.082 128.536 235.89 128.672 235.676 128.764C235.463 128.856 235.233 128.903 235 128.902Z" fill="#422C4E"/>
<path d="M230.912 411.682L230.694 411.531L223.474 406.794L232.487 370.333L209.401 367.989L202.364 404.199L200.287 416.52H228.047C228.567 414.687 229.554 413.019 230.912 411.682Z" fill="#FCCAAF"/>
<path d="M238.904 414.026C236.07 414.022 233.298 413.209 230.912 411.682C229.564 413.001 228.577 414.644 228.047 416.453H200.287L199.03 423.919H252.842C251.828 421.033 249.942 418.531 247.446 416.76C244.95 414.988 241.965 414.033 238.904 414.026Z" fill="#422C4E"/>
<path d="M252.842 423.919H199.03L198.461 427.267H253.747L253.479 425.945C253.317 425.255 253.104 424.578 252.842 423.919Z" fill="#FFEFD2"/>
<path d="M206.033 385.232C215.13 390.974 227.578 390.137 227.578 390.137L232.487 370.266L209.401 367.922L206.033 385.232Z" fill="#422C4E"/>
<path d="M230.56 256.749L182.143 249.316L105.714 237.598C83.9345 266.86 98.2922 298.215 125.818 298.215H214.075L188.71 369.596C192.982 373.229 196.987 377.297 202.113 379.641C207.24 381.984 213.371 382.587 218.414 380.126C220.287 378.976 222.228 377.942 224.228 377.029C227.578 375.857 231.247 376.627 234.749 377.213C238.25 377.799 242.07 378.184 245.119 376.393L256.846 291.988C257.989 283.839 255.87 275.569 250.949 268.972C246.028 262.374 238.702 257.982 230.56 256.749Z" fill="#435478"/>
<path d="M239.607 377.967C237.965 377.939 236.328 377.771 234.715 377.464L234.028 377.347C230.778 376.778 227.327 376.209 224.378 377.263C224.337 377.279 224.292 377.287 224.247 377.285C224.203 377.284 224.159 377.274 224.118 377.255C224.078 377.236 224.041 377.209 224.011 377.176C223.981 377.143 223.958 377.105 223.943 377.063C223.927 377.021 223.919 376.976 223.921 376.932C223.922 376.887 223.933 376.843 223.951 376.803C223.97 376.762 223.997 376.726 224.03 376.696C224.063 376.665 224.102 376.642 224.144 376.627C227.36 375.506 230.845 376.108 234.196 376.627L234.883 376.745C238.367 377.347 242.003 377.665 244.935 376.041L256.545 291.803C257.619 283.769 255.506 275.634 250.657 269.137C245.807 262.639 238.607 258.295 230.594 257.033C230.55 257.027 230.508 257.012 230.469 256.989C230.431 256.966 230.398 256.936 230.372 256.9C230.345 256.864 230.326 256.823 230.315 256.78C230.305 256.737 230.302 256.692 230.309 256.648C230.316 256.604 230.331 256.562 230.354 256.524C230.377 256.486 230.407 256.453 230.443 256.426C230.478 256.4 230.519 256.381 230.562 256.37C230.606 256.359 230.65 256.357 230.694 256.364C238.874 257.675 246.22 262.12 251.172 268.756C256.124 275.392 258.292 283.696 257.215 291.904L245.571 376.309C245.568 376.358 245.553 376.405 245.527 376.446C245.5 376.487 245.464 376.521 245.421 376.544C243.65 377.541 241.639 378.033 239.607 377.967Z" fill="#422C4E"/>
<path d="M214.092 298.566H160.481C160.435 298.567 160.39 298.557 160.349 298.539C160.307 298.522 160.269 298.495 160.238 298.463C160.206 298.43 160.182 298.391 160.166 298.348C160.15 298.306 160.144 298.26 160.146 298.215C160.146 298.126 160.181 298.041 160.244 297.978C160.307 297.915 160.392 297.88 160.481 297.88H214.092C214.181 297.88 214.266 297.915 214.329 297.978C214.392 298.041 214.427 298.126 214.427 298.215C214.429 298.26 214.422 298.306 214.406 298.348C214.39 298.391 214.366 298.43 214.335 298.463C214.303 298.495 214.266 298.522 214.224 298.539C214.182 298.557 214.137 298.567 214.092 298.566Z" fill="#422C4E"/>
<path d="M214.092 298.215L219.821 282.077L215.214 285.425C213.214 286.842 211.673 288.813 210.78 291.094C209.887 293.376 209.681 295.868 210.188 298.265H214.092V298.215Z" fill="#422C4E"/>
<path d="M188.727 369.965H188.61C188.568 369.95 188.529 369.927 188.496 369.897C188.463 369.866 188.436 369.83 188.417 369.789C188.399 369.749 188.388 369.705 188.387 369.66C188.385 369.616 188.393 369.571 188.409 369.529L221.815 275.532C221.846 275.446 221.908 275.376 221.989 275.335C222.07 275.295 222.164 275.287 222.251 275.314C222.333 275.348 222.4 275.411 222.437 275.492C222.474 275.573 222.479 275.665 222.452 275.749L189.045 369.764C189.017 369.824 188.972 369.875 188.915 369.91C188.859 369.946 188.794 369.965 188.727 369.965Z" fill="#422C4E"/>
<path d="M222.485 371.12C222.398 371.103 222.32 371.055 222.267 370.983C222.214 370.912 222.19 370.823 222.2 370.735L231.063 317.282C231.079 317.195 231.128 317.117 231.2 317.064C231.271 317.012 231.36 316.988 231.448 316.998C231.492 317.004 231.535 317.019 231.573 317.042C231.612 317.064 231.645 317.095 231.672 317.131C231.698 317.166 231.717 317.207 231.728 317.251C231.738 317.294 231.74 317.339 231.733 317.383L222.753 370.835C222.744 370.905 222.713 370.97 222.665 371.021C222.617 371.072 222.554 371.106 222.485 371.12Z" fill="#422C4E"/>
<path d="M220.441 217.124L248.369 202.694L255.272 211.801L224.328 240.996L220.441 217.124Z" fill="#FCCAAF"/>
<path d="M248.369 202.694C248.547 197.503 249.777 192.401 251.986 187.7C254.195 182.998 257.336 178.793 261.219 175.34C262.061 175.992 262.657 176.909 262.909 177.943C263.162 178.977 263.056 180.066 262.61 181.032C261.204 184.415 260.295 187.985 259.912 191.628C269.244 190.272 282.111 182.354 286.986 179.157C287.533 178.797 288.197 178.657 288.843 178.766C289.49 178.875 290.071 179.224 290.47 179.743C290.842 180.23 291.031 180.832 291.003 181.444C290.976 182.056 290.734 182.639 290.32 183.091C285.964 187.845 276.465 193.553 276.465 193.553C282.062 192.145 287.427 189.94 292.397 187.008C292.955 186.698 293.609 186.609 294.229 186.757C294.85 186.906 295.392 187.282 295.748 187.811C296.096 188.323 296.249 188.942 296.178 189.557C296.108 190.172 295.818 190.741 295.362 191.16C290.421 195.139 284.721 198.072 278.609 199.781C283.047 199.427 287.419 198.487 291.61 196.985C291.912 196.882 292.232 196.84 292.551 196.862C292.87 196.885 293.181 196.971 293.465 197.117C293.75 197.262 294.002 197.463 294.207 197.708C294.412 197.953 294.566 198.237 294.659 198.542C294.82 199.059 294.798 199.616 294.596 200.119C294.395 200.622 294.027 201.041 293.553 201.304C288.242 204.284 276.465 205.891 276.465 205.891C282.278 206.377 286.517 206.41 288.946 206.377C289.213 206.374 289.479 206.426 289.726 206.528C289.973 206.63 290.197 206.781 290.385 206.972C290.572 207.162 290.72 207.389 290.818 207.637C290.916 207.886 290.963 208.152 290.956 208.419C290.947 208.86 290.793 209.286 290.518 209.631C290.242 209.976 289.86 210.221 289.432 210.327C273.751 213.977 255.221 211.817 255.221 211.817L248.369 202.694Z" fill="#FCCAAF"/>
<path d="M220.441 217.124L224.328 240.996L230.074 235.572L221.597 216.521L220.441 217.124Z" fill="#F8A58F"/>
<path d="M225.233 246.587L219.939 214.044L209.099 218.714L214.393 251.258L225.233 246.587Z" fill="#F16358"/>
<path d="M244.767 222.063C244.719 222.065 244.671 222.055 244.627 222.035C244.584 222.014 244.545 221.984 244.516 221.945C244.483 221.916 244.457 221.879 244.44 221.839C244.422 221.799 244.413 221.755 244.413 221.711C244.413 221.667 244.422 221.623 244.44 221.583C244.457 221.543 244.483 221.506 244.516 221.477L255.02 211.566C255.086 211.504 255.173 211.469 255.263 211.469C255.354 211.469 255.441 211.504 255.506 211.566C255.569 211.632 255.603 211.719 255.603 211.809C255.603 211.899 255.569 211.986 255.506 212.052L245.002 221.962C244.94 222.025 244.856 222.061 244.767 222.063Z" fill="#422C4E"/>
<path d="M268.155 212.772C263.841 212.788 259.529 212.576 255.238 212.135C255.194 212.135 255.151 212.127 255.11 212.11C255.069 212.093 255.032 212.068 255.001 212.037C254.97 212.006 254.945 211.969 254.929 211.929C254.912 211.888 254.903 211.845 254.903 211.801C254.903 211.757 254.912 211.713 254.929 211.672C254.945 211.632 254.97 211.595 255.001 211.564C255.032 211.533 255.069 211.508 255.11 211.491C255.151 211.475 255.194 211.466 255.238 211.466C255.422 211.466 273.885 213.575 289.348 209.976C289.7 209.885 290.013 209.683 290.239 209.399C290.466 209.115 290.594 208.765 290.605 208.402C290.61 208.176 290.57 207.952 290.487 207.742C290.403 207.532 290.278 207.341 290.119 207.18C289.962 207.025 289.776 206.902 289.572 206.819C289.368 206.736 289.15 206.694 288.929 206.695C288.839 206.695 288.752 206.66 288.686 206.598C288.621 206.535 288.582 206.45 288.577 206.36C288.577 206.271 288.613 206.186 288.675 206.123C288.738 206.06 288.824 206.025 288.912 206.025C289.223 206.023 289.531 206.083 289.819 206.2C290.107 206.318 290.368 206.492 290.588 206.712C290.878 207.006 291.084 207.372 291.187 207.773C291.29 208.173 291.285 208.593 291.173 208.991C291.06 209.389 290.845 209.75 290.548 210.037C290.251 210.325 289.883 210.529 289.482 210.629C282.475 212.131 275.322 212.85 268.155 212.772Z" fill="#422C4E"/>
<path d="M276.515 206.226C276.432 206.226 276.351 206.196 276.289 206.14C276.227 206.084 276.188 206.008 276.18 205.925C276.173 205.881 276.175 205.836 276.185 205.792C276.196 205.749 276.215 205.708 276.241 205.672C276.268 205.636 276.301 205.606 276.34 205.583C276.378 205.561 276.42 205.546 276.465 205.54C276.582 205.54 288.192 203.866 293.436 201.003C293.844 200.772 294.161 200.409 294.334 199.974C294.508 199.539 294.528 199.057 294.391 198.609C294.307 198.348 294.173 198.106 293.995 197.898C293.817 197.689 293.599 197.519 293.354 197.395C293.109 197.272 292.842 197.199 292.568 197.181C292.295 197.162 292.02 197.198 291.761 197.287C291.719 197.302 291.674 197.309 291.63 197.306C291.586 197.303 291.542 197.291 291.503 197.271C291.463 197.25 291.429 197.222 291.401 197.187C291.373 197.152 291.353 197.112 291.342 197.069C291.326 197.028 291.319 196.985 291.32 196.942C291.322 196.898 291.333 196.855 291.351 196.816C291.37 196.777 291.397 196.742 291.43 196.713C291.463 196.685 291.501 196.664 291.543 196.65C291.888 196.526 292.256 196.475 292.623 196.501C292.989 196.527 293.346 196.629 293.67 196.801C294.105 197.027 294.472 197.366 294.73 197.782C294.989 198.198 295.131 198.675 295.141 199.165C295.152 199.655 295.03 200.138 294.789 200.565C294.548 200.991 294.196 201.345 293.771 201.589C288.46 204.569 277.018 206.142 276.565 206.209L276.515 206.226Z" fill="#422C4E"/>
<path d="M278.659 200.099C278.576 200.099 278.496 200.069 278.434 200.013C278.372 199.957 278.333 199.881 278.324 199.798C278.317 199.755 278.319 199.711 278.33 199.668C278.34 199.626 278.36 199.586 278.387 199.552C278.413 199.517 278.447 199.488 278.485 199.467C278.523 199.446 278.566 199.433 278.609 199.429C284.625 197.712 290.235 194.809 295.111 190.892C295.502 190.531 295.751 190.044 295.816 189.517C295.88 188.989 295.755 188.456 295.463 188.012C295.15 187.536 294.666 187.198 294.11 187.071C293.554 186.943 292.971 187.034 292.481 187.326C292.403 187.368 292.312 187.377 292.227 187.352C292.142 187.327 292.071 187.27 292.029 187.192C292.005 187.155 291.989 187.114 291.982 187.07C291.975 187.027 291.977 186.983 291.988 186.941C291.999 186.898 292.019 186.858 292.046 186.824C292.073 186.789 292.107 186.761 292.146 186.74C292.764 186.418 293.478 186.329 294.156 186.49C294.834 186.651 295.432 187.051 295.839 187.617C296.246 188.182 296.435 188.875 296.372 189.569C296.31 190.263 295.999 190.911 295.497 191.394C291.09 195.462 281.491 199.764 278.643 200.099H278.659Z" fill="#422C4E"/>
<path d="M276.381 193.922C276.323 193.923 276.265 193.907 276.215 193.878C276.165 193.848 276.124 193.806 276.096 193.754C276.072 193.716 276.056 193.674 276.049 193.629C276.042 193.584 276.044 193.539 276.055 193.495C276.066 193.451 276.085 193.41 276.113 193.374C276.14 193.338 276.174 193.308 276.213 193.286C276.297 193.286 285.713 187.544 289.985 182.89C290.347 182.491 290.559 181.979 290.583 181.441C290.608 180.903 290.444 180.373 290.119 179.944C289.77 179.493 289.263 179.192 288.701 179.099C288.139 179.005 287.562 179.128 287.086 179.441C287.01 179.487 286.919 179.502 286.832 179.483C286.745 179.465 286.668 179.414 286.617 179.341C286.572 179.265 286.556 179.174 286.575 179.087C286.594 179 286.645 178.923 286.718 178.872C287.32 178.483 288.044 178.328 288.754 178.434C289.463 178.54 290.109 178.901 290.571 179.449C291.034 179.997 291.28 180.695 291.265 181.411C291.249 182.128 290.973 182.814 290.487 183.342C286.148 188.063 276.649 193.805 276.548 193.872C276.498 193.904 276.44 193.921 276.381 193.922Z" fill="#422C4E"/>
<path d="M259.829 191.963C259.784 191.959 259.742 191.946 259.703 191.925C259.663 191.904 259.629 191.876 259.601 191.842C259.573 191.808 259.552 191.768 259.539 191.726C259.526 191.683 259.522 191.639 259.527 191.595C259.907 187.916 260.821 184.313 262.241 180.898C262.664 180.006 262.768 178.996 262.536 178.036C262.305 177.077 261.751 176.226 260.968 175.624C260.905 175.559 260.87 175.472 260.87 175.382C260.87 175.291 260.905 175.204 260.968 175.139C261.03 175.078 261.115 175.043 261.202 175.043C261.29 175.043 261.374 175.078 261.437 175.139C262.341 175.835 262.981 176.817 263.252 177.924C263.523 179.032 263.408 180.198 262.928 181.232C261.551 184.583 260.654 188.111 260.264 191.712C260.255 191.759 260.236 191.803 260.208 191.841C260.18 191.88 260.144 191.912 260.103 191.936C260.062 191.96 260.016 191.974 259.969 191.979C259.921 191.984 259.874 191.978 259.829 191.963Z" fill="#422C4E"/>
<path d="M153.612 168.627L178.541 245.064C179.49 247.972 181.131 250.607 183.322 252.743C185.513 254.879 188.189 256.453 191.122 257.33C194.055 258.207 197.157 258.361 200.162 257.779C203.167 257.197 205.987 255.895 208.379 253.987L214.092 249.433L209.401 220.522L203.721 223.418L184.606 159.035C183.984 156.936 182.942 154.986 181.545 153.3C180.148 151.615 178.423 150.23 176.476 149.229C174.528 148.228 172.398 147.631 170.213 147.475C168.028 147.319 165.835 147.607 163.765 148.321C159.75 149.706 156.44 152.608 154.542 156.404C152.644 160.2 152.31 164.588 153.612 168.627Z" fill="#F16358"/>
<path d="M203.721 223.419L188.643 231.136L189.9 228.19C190.963 225.688 192.839 223.618 195.226 222.314C197.613 221.011 200.37 220.551 203.051 221.008L203.721 223.419Z" fill="#D63E3C"/>
<path d="M203.721 223.77C203.647 223.772 203.575 223.747 203.517 223.702C203.459 223.656 203.419 223.591 203.403 223.519L185.477 163.119C185.454 163.033 185.464 162.941 185.504 162.861C185.544 162.78 185.612 162.718 185.695 162.684C185.738 162.671 185.783 162.667 185.827 162.672C185.872 162.677 185.915 162.691 185.954 162.713C185.993 162.735 186.027 162.764 186.054 162.799C186.082 162.835 186.102 162.875 186.114 162.918L204.056 223.335C204.078 223.421 204.065 223.512 204.022 223.59C203.978 223.668 203.907 223.726 203.822 223.753L203.721 223.77Z" fill="#422C4E"/>
<path d="M188.593 231.471C188.531 231.469 188.47 231.452 188.417 231.419C188.364 231.387 188.321 231.341 188.291 231.287C188.271 231.247 188.259 231.204 188.256 231.16C188.253 231.116 188.258 231.071 188.272 231.029C188.286 230.987 188.309 230.948 188.338 230.915C188.367 230.881 188.402 230.854 188.442 230.835L209.284 220.221C209.364 220.185 209.455 220.18 209.539 220.208C209.623 220.236 209.693 220.295 209.736 220.372C209.756 220.411 209.768 220.454 209.771 220.499C209.775 220.543 209.769 220.587 209.755 220.629C209.741 220.671 209.719 220.71 209.69 220.744C209.66 220.777 209.625 220.804 209.585 220.824L188.794 231.437L188.593 231.471Z" fill="#422C4E"/>
<path d="M214.393 251.593C214.312 251.594 214.234 251.565 214.172 251.513C214.111 251.461 214.07 251.388 214.058 251.308L208.764 218.765C208.754 218.676 208.778 218.588 208.831 218.516C208.884 218.445 208.962 218.396 209.049 218.38C209.093 218.373 209.138 218.374 209.181 218.385C209.225 218.395 209.266 218.414 209.302 218.441C209.337 218.467 209.368 218.501 209.39 218.539C209.413 218.578 209.428 218.62 209.434 218.664L214.712 251.191C214.727 251.279 214.707 251.37 214.658 251.445C214.608 251.52 214.531 251.573 214.444 251.593H214.393Z" fill="#422C4E"/>
<path d="M196.534 258.574C194.65 258.572 192.776 258.296 190.972 257.753C187.979 256.89 185.244 255.307 183.006 253.141C180.769 250.975 179.097 248.294 178.139 245.332L154.986 173.917C154.957 173.833 154.963 173.74 155.002 173.66C155.041 173.58 155.111 173.519 155.195 173.49C155.28 173.461 155.372 173.467 155.452 173.506C155.532 173.545 155.594 173.615 155.622 173.699L178.792 245.114C179.735 247.96 181.353 250.536 183.507 252.623C185.661 254.71 188.288 256.245 191.165 257.099C194.041 257.952 197.081 258.098 200.026 257.524C202.97 256.95 205.733 255.673 208.077 253.802C208.107 253.773 208.142 253.749 208.181 253.733C208.22 253.717 208.261 253.708 208.303 253.708C208.345 253.708 208.387 253.717 208.426 253.733C208.465 253.749 208.5 253.773 208.53 253.802C208.592 253.868 208.627 253.955 208.627 254.045C208.627 254.136 208.592 254.223 208.53 254.288C205.139 257.045 200.905 258.558 196.534 258.574Z" fill="#422C4E"/>
<path d="M184.606 159.336C184.533 159.342 184.461 159.321 184.403 159.278C184.344 159.235 184.303 159.172 184.287 159.102C183.363 156.03 181.534 153.307 179.039 151.289C176.543 149.27 173.498 148.049 170.298 147.785C168.12 147.606 165.928 147.885 163.865 148.605C163.781 148.632 163.689 148.623 163.611 148.583C163.532 148.542 163.473 148.472 163.446 148.388C163.43 148.347 163.423 148.304 163.425 148.26C163.427 148.217 163.437 148.174 163.456 148.135C163.475 148.096 163.501 148.061 163.534 148.032C163.567 148.004 163.606 147.982 163.647 147.969C165.796 147.217 168.079 146.92 170.349 147.099C173.666 147.385 176.823 148.653 179.416 150.74C182.009 152.827 183.921 155.639 184.907 158.817C184.934 158.901 184.926 158.993 184.885 159.071C184.844 159.149 184.774 159.209 184.69 159.236L184.606 159.336Z" fill="#422C4E"/>
</g>
<defs>
<clipPath id="clip0">
<rect width="602" height="446" fill="white"/>
</clipPath>
</defs>
</svg>
