<svg width="612" height="549" viewBox="0 0 612 549" fill="none" xmlns="http://www.w3.org/2000/svg">
<path d="M87.1063 529.818C87.1063 529.818 162.626 482.945 110.814 335.382C59.0013 187.819 133.986 122.586 215.624 112.833C297.263 103.08 185.034 252.651 267.743 288.776C350.452 324.902 406.05 168.293 316.439 97.6484C200.712 6.42573 460.826 -96.6349 543.172 174.566C604.467 376.461 519.904 529.818 519.904 529.818H87.1063Z" fill="white"/>
<path fill-rule="evenodd" clip-rule="evenodd" d="M87.1063 428.326C87.3548 427.351 78.7513 366.937 56.0379 353.493C56.0379 353.493 69.8992 387.802 68.9432 427.351L87.1063 428.326Z" fill="#63B6C1"/>
<path fill-rule="evenodd" clip-rule="evenodd" d="M81.0456 427.37C81.0456 427.37 78.6557 359.957 55.9423 320.79C55.9423 320.79 90.8345 327.025 97.0482 427.37H81.0456Z" fill="#4397A5"/>
<path fill-rule="evenodd" clip-rule="evenodd" d="M83.4354 428.326C83.4354 428.326 89.8785 342.974 76.4952 280.438C76.4952 280.438 100.547 310.635 100.547 427.351L83.4354 428.326Z" fill="#63B6C1"/>
<path fill-rule="evenodd" clip-rule="evenodd" d="M119.284 428.326C119.035 427.351 127.639 366.937 150.352 353.493C150.352 353.493 136.491 387.802 137.447 427.351L119.284 428.326Z" fill="#63B6C1"/>
<path fill-rule="evenodd" clip-rule="evenodd" d="M125.344 427.37C125.344 427.37 127.734 359.957 150.448 320.79C150.448 320.79 115.555 327.025 109.342 427.37H125.344Z" fill="#4397A5"/>
<path fill-rule="evenodd" clip-rule="evenodd" d="M110.718 435.019C110.718 435.019 107.602 346.034 105.613 271.43C105.613 271.43 93.5876 317.329 93.5876 433.987L110.718 435.019Z" fill="#4397A5"/>
<path fill-rule="evenodd" clip-rule="evenodd" d="M121.272 428.326C121.272 428.326 114.81 342.974 128.193 280.438C128.193 280.438 104.141 310.635 104.141 427.351L121.272 428.326Z" fill="#63B6C1"/>
<path fill-rule="evenodd" clip-rule="evenodd" d="M54.7187 438.347L71.8493 529.474H104.141V438.29L54.7187 438.347Z" fill="#8CB3DF"/>
<path fill-rule="evenodd" clip-rule="evenodd" d="M153.545 438.347L136.414 529.474H104.141V438.29L153.545 438.347Z" fill="#AAC4E7"/>
<path d="M144.157 521.136H64.1061V529.818H144.157V521.136Z" fill="#AAC4E7"/>
<path d="M144.157 521.136H104.141V529.818H144.157V521.136Z" fill="#C2DAF1"/>
<path d="M165.418 425.343H42.8457V438.366H165.418V425.343Z" fill="#AAC4E7"/>
<path d="M165.418 425.343H104.141V438.366H165.418V425.343Z" fill="#C2DAF1"/>
<path fill-rule="evenodd" clip-rule="evenodd" d="M490.747 428.326C490.996 427.351 482.392 366.937 459.679 353.493C459.679 353.493 473.54 387.802 472.584 427.351L490.747 428.326Z" fill="#63B6C1"/>
<path fill-rule="evenodd" clip-rule="evenodd" d="M484.782 427.37C484.782 427.37 482.392 359.957 459.679 320.79C459.679 320.79 494.571 327.025 500.785 427.37H484.782Z" fill="#4397A5"/>
<path fill-rule="evenodd" clip-rule="evenodd" d="M487.172 428.326C487.172 428.326 493.615 342.974 480.232 280.438C480.232 280.438 504.283 310.635 504.283 427.351L487.172 428.326Z" fill="#63B6C1"/>
<path fill-rule="evenodd" clip-rule="evenodd" d="M523.02 428.326C522.772 427.351 531.375 366.937 554.089 353.493C554.089 353.493 540.227 387.802 541.183 427.351L523.02 428.326Z" fill="#63B6C1"/>
<path fill-rule="evenodd" clip-rule="evenodd" d="M528.985 427.37C528.985 427.37 531.375 359.957 554.088 320.79C554.088 320.79 519.196 327.025 512.983 427.37H528.985Z" fill="#4397A5"/>
<path fill-rule="evenodd" clip-rule="evenodd" d="M514.455 435.019C514.455 435.019 511.338 346.034 509.35 271.43C509.35 271.43 497.324 317.329 497.324 433.987L514.455 435.019Z" fill="#4397A5"/>
<path fill-rule="evenodd" clip-rule="evenodd" d="M524.932 428.326C524.932 428.326 518.47 342.974 531.853 280.438C531.853 280.438 507.801 310.635 507.801 427.351L524.932 428.326Z" fill="#63B6C1"/>
<path fill-rule="evenodd" clip-rule="evenodd" d="M458.455 438.347L475.586 529.474H507.859V438.29L458.455 438.347Z" fill="#8CB3DF"/>
<path fill-rule="evenodd" clip-rule="evenodd" d="M557.281 438.347L540.151 529.474H507.859V438.29L557.281 438.347Z" fill="#AAC4E7"/>
<path d="M547.894 521.136H467.843V529.818H547.894V521.136Z" fill="#AAC4E7"/>
<path d="M547.894 521.136H507.878V529.818H547.894V521.136Z" fill="#C2DAF1"/>
<path d="M569.154 425.343H446.582V438.366H569.154V425.343Z" fill="#AAC4E7"/>
<path d="M569.154 425.343H507.878V438.366H569.154V425.343Z" fill="#C2DAF1"/>
<path d="M602.689 529.608H9.31097C4.16866 529.608 0 533.778 0 538.921V539.686C0 544.83 4.16866 549 9.31097 549H602.689C607.831 549 612 544.83 612 539.686V538.921C612 533.778 607.831 529.608 602.689 529.608Z" fill="#125F9C"/>
<path d="M482.297 486.77H124.465C112.829 486.77 103.396 496.205 103.396 507.845V508.743C103.396 520.383 112.829 529.818 124.465 529.818H482.297C493.933 529.818 503.366 520.383 503.366 508.743V507.845C503.366 496.205 493.933 486.77 482.297 486.77Z" fill="#3E435B"/>
<path d="M393.68 300.308C400.811 269.556 389.856 198.95 333.225 191.3C276.595 183.65 247.458 249.017 246.253 280.572C246.253 280.572 216.427 296.082 215.567 325.743C214.688 356.17 234.208 379.463 306.746 389.179C379.283 398.894 404.253 381.529 411.403 351.963C418.382 323.123 393.68 300.308 393.68 300.308Z" fill="#3E435B"/>
<path d="M374.274 400.404C374.274 400.404 379.589 433.948 352.727 433.891C325.865 433.834 359.591 396.561 359.591 396.561L366.359 394.438L374.274 400.404Z" fill="#F67E7E"/>
<path d="M322.538 271.182L327.509 258.025L361.025 244.045C361.025 244.045 353.721 275.026 365.766 293.596C377.811 312.165 397.332 323.315 381.558 360.033C365.785 396.752 346.685 377.035 338.445 367.377C330.205 357.719 316.343 313.121 316.343 313.121L322.538 271.182Z" fill="#303649"/>
<path d="M252.455 425.134L248.583 456.103L344.368 468.088L348.241 437.119L252.455 425.134Z" fill="#1D4D78"/>
<path d="M352.727 369.155C352.727 369.155 361.77 361.984 363.319 343.319C364.16 333.221 362.344 320.599 360.566 311.439C359.878 307.868 358.078 304.606 355.423 302.122C352.768 299.638 349.394 298.059 345.787 297.612L275.41 289.006C275.41 289.006 263.938 312.624 261.032 330.524C257.935 348.979 259.445 410.043 252.486 425.17C252.486 425.17 264.779 435.077 299.347 439.399C333.914 443.721 348.272 437.161 348.272 437.161C345.251 420.772 340.261 407.959 340.472 404.191C342.404 391.867 346.557 379.996 352.727 369.155Z" fill="#E45049"/>
<path d="M360.05 305.72C364.275 319.012 373.337 351.81 377.754 399.544L346.169 407.404L341.389 309.086C341.33 307.794 341.533 306.503 341.987 305.292C342.441 304.08 343.135 302.974 344.029 302.039C344.923 301.104 345.997 300.36 347.186 299.852C348.376 299.344 349.656 299.083 350.949 299.084C352.973 299.084 354.944 299.727 356.58 300.919C358.215 302.112 359.43 303.793 360.05 305.72Z" fill="#F16358"/>
<path d="M346.169 407.404L377.715 399.544C377.448 396.79 377.18 394.075 376.893 391.416L345.748 398.683L346.169 407.404Z" fill="#F37973"/>
<path d="M292.54 312.069C293.133 324.175 324.469 331.614 334.851 321.632C345.232 311.649 339.286 297.86 339.286 297.86L337.967 296.541L302.023 292.046C300.169 293.691 292.005 301.341 292.54 312.069Z" fill="#D63E3C"/>
<path d="M286.059 321.173L276.863 412.414L317.108 433.26L333.742 437.563L336.227 441.216L263.69 446.647L252.486 423.105V389.714C252.486 389.714 255.22 358.771 265.066 353.244C274.912 347.717 286.059 321.173 286.059 321.173Z" fill="#D63E3C"/>
<path d="M343.014 352.116L333.742 320.618L324.756 317.195L317.108 425.17L335.539 428.288L341.81 411.076C341.078 408.852 340.629 406.546 340.472 404.21C341.315 398.304 342.757 392.499 344.773 386.884L343.014 352.116Z" fill="#D63E3C"/>
<path d="M326.419 363.667C326.419 363.667 334.181 375.945 348.119 378.144C349.463 375.053 351.002 372.051 352.727 369.156C352.727 369.156 337.107 371.603 326.419 363.667Z" fill="#14487F"/>
<path d="M308.008 278.87C307.275 287.704 304.882 296.321 300.953 304.267C296.593 313.294 320.263 320.714 329.631 314.192C338.999 307.671 327.547 291.415 333.149 282.465C338.751 273.515 308.008 278.87 308.008 278.87Z" fill="#F8AB98"/>
<path d="M308.696 278.755L307.95 279.711C307.95 280.266 307.816 281.107 307.682 282.198C310.111 285.659 317.433 297.497 319.555 316.621C323.074 316.835 326.574 315.975 329.593 314.154C338.904 307.652 327.509 291.377 333.111 282.427C338.235 274.376 313.17 278.028 308.696 278.755Z" fill="#F67E7E"/>
<path d="M325.004 296.981C325.004 296.981 322.978 392.755 331.792 419.548C340.605 446.341 358.08 436.53 360.91 418.649C363.739 400.768 345.481 295.489 345.481 295.489L325.004 296.981Z" fill="#F8AB98"/>
<path d="M340.472 404.191C332.824 397.421 327.815 378.565 325.807 369.767C326.744 390.269 328.522 409.68 331.792 419.624C340.605 446.398 358.08 436.607 360.91 418.726C352.459 430.009 350.586 413.16 340.472 404.191Z" fill="#F67E7E"/>
<path d="M324.813 314.9C333.13 305.873 346.303 300.308 346.303 300.308C345.787 297.229 345.481 295.489 345.481 295.489L325.004 296.981C325.004 296.981 324.851 304.057 324.813 314.9Z" fill="#F67E7E"/>
<path d="M328.388 298.587C328.388 298.587 322.959 299.505 322.653 293.309L322.481 289.484C322.457 288.891 322.555 288.3 322.767 287.746C322.978 287.192 323.301 286.687 323.714 286.261C324.127 285.836 324.622 285.498 325.169 285.27C325.716 285.041 326.304 284.927 326.897 284.932H330.013L328.388 298.587Z" fill="#F67E7E"/>
<path d="M323.111 464.777C303.714 455.972 284.82 446.095 266.519 435.192C239.428 418.726 181.822 414.614 161.919 425.935C142.016 437.257 147.484 454.029 181.134 471.834C226.465 495.911 323.111 490.709 323.111 490.709C323.111 490.709 330.396 490.059 330.396 477.456C330.396 467.186 323.111 464.777 323.111 464.777Z" fill="#255480"/>
<path d="M280.208 443.128C280.208 443.128 293.764 450.567 293.764 455.387C293.764 460.206 280.954 457.299 276.308 455.387C271.16 453.718 265.894 452.44 260.554 451.562C260.554 451.562 271.07 457.051 269.33 464.853C267.59 472.656 237.573 479.464 227.669 479.694C222.794 479.808 224.438 482.868 227.363 485.928C241.488 488.22 255.728 489.74 270.018 490.48L286.212 484.742C288.997 482.854 291.924 481.185 294.968 479.751C300.36 477.15 304.528 470.954 306.229 470.074C307.357 469.481 311.239 464.222 313.877 460.608C305.771 456.63 293.305 450.453 280.208 443.128Z" fill="#09638A"/>
<path d="M323.112 464.777C323.112 464.777 346.743 473.478 365.881 478.164C380.003 481.281 394.744 479.945 408.076 474.339C412.952 472.025 431.727 464.203 439.699 472.427C447.672 480.65 440.216 490.614 421.192 495.51C402.169 500.405 391.902 498.13 391.902 498.13C389.941 498.613 387.936 498.895 385.918 498.971C382.992 498.971 381.329 497.977 378.499 497.192C375.67 496.408 337.088 491.455 323.054 490.69L323.112 464.777Z" fill="#F67E7E"/>
<path d="M323.112 471.47C310.705 471.124 298.437 468.767 286.785 464.49C283.841 463.304 281.05 461.927 278.316 460.512L270.114 456.343C264.665 453.532 259.216 450.74 253.671 448.215C248.214 445.579 242.594 443.292 236.846 441.369C235.413 440.929 233.979 440.489 232.545 440.087C231.111 439.686 229.658 439.342 228.205 439.169L226.025 438.844C225.299 438.844 224.572 438.844 223.865 438.71C222.45 438.577 220.844 438.71 219.353 438.71C213.254 438.863 207.136 439.227 201.017 439.667C194.899 440.106 188.724 440.623 182.548 440.355C188.686 439.705 194.708 438.691 200.807 437.716C206.906 436.741 213.024 435.995 219.2 435.574C222.38 435.237 225.588 435.276 228.759 435.689C230.365 435.842 231.895 436.263 233.462 436.53C235.03 436.798 236.502 437.333 238.032 437.735C243.951 439.632 249.737 441.919 255.354 444.582C260.956 447.221 266.443 450.051 271.873 452.977C277.302 455.903 282.637 459.059 287.99 461.64C293.555 464.081 299.31 466.063 305.197 467.569C311.028 469.214 317.051 470.38 323.112 471.47Z" fill="#09638A"/>
<path d="M290.609 464.777C290.609 464.777 266.978 473.478 247.821 478.164C233.705 481.28 218.97 479.943 205.644 474.339C200.769 472.025 181.994 464.203 174.021 472.427C166.049 480.65 173.505 490.614 192.529 495.51C211.552 500.405 221.819 498.13 221.819 498.13C223.773 498.612 225.772 498.894 227.784 498.971C230.728 498.971 232.392 497.977 235.221 497.192C238.051 496.408 276.633 491.455 290.667 490.69L290.609 464.777Z" fill="#F8AB98"/>
<path d="M277.857 479.77C275.677 489.791 250.536 494.783 241.148 496.313C253.117 494.611 279.558 491.379 290.609 490.767V464.777L285.581 466.575C282.77 468.43 279.501 472.159 277.857 479.77Z" fill="#F67E7E"/>
<path d="M290.609 464.777C309.981 455.969 328.849 446.092 347.125 435.192C374.217 418.726 431.822 414.614 451.725 425.935C471.628 437.257 466.16 454.029 432.511 471.834C387.179 495.911 290.533 490.709 290.533 490.709C290.533 490.709 283.248 490.059 283.248 477.456C283.325 467.186 290.609 464.777 290.609 464.777Z" fill="#255480"/>
<path d="M290.609 471.47C296.67 470.38 302.692 469.214 308.581 467.55C314.468 466.044 320.223 464.062 325.788 461.621C331.122 459.039 336.514 455.884 341.906 452.958C347.297 450.032 352.822 447.221 358.424 444.562C364.06 441.898 369.865 439.611 375.804 437.716C377.333 437.314 378.843 436.894 380.373 436.511C381.903 436.129 383.47 435.823 385.076 435.67C388.247 435.256 391.456 435.218 394.636 435.555C400.811 435.976 406.948 436.76 413.028 437.697C419.108 438.634 425.15 439.609 431.268 440.336C425.112 440.604 418.955 439.973 412.818 439.647C406.681 439.322 400.582 438.844 394.483 438.691C392.992 438.691 391.386 438.577 389.971 438.691C389.244 438.691 388.537 438.691 387.81 438.825L385.631 439.15C384.178 439.322 382.725 439.781 381.291 440.068C379.857 440.355 378.404 440.91 376.989 441.35C371.241 443.273 365.622 445.559 360.164 448.196C354.62 450.72 349.171 453.513 343.722 456.324L335.501 460.493C332.786 461.908 329.994 463.285 327.05 464.471C315.363 468.767 303.055 471.131 290.609 471.47Z" fill="#09638A"/>
<path d="M331.83 203.061C331.83 203.061 291.24 193.748 292.54 238.384C292.54 238.384 293.114 282.236 320.301 289.235C348.349 289.637 360.451 247.468 360.451 247.468C373.433 204.744 331.83 203.061 331.83 203.061Z" fill="#F8AB98"/>
<path d="M331.275 205.949C331.275 205.949 303.763 200.327 294.242 222.759C292.895 227.853 292.328 233.121 292.559 238.384C292.559 238.384 292.559 238.69 292.559 239.206C333.359 242.515 347.393 222.511 347.393 222.511C347.393 222.511 350.949 241.864 360.298 248.022L360.451 247.468C361.734 243.407 362.536 239.209 362.841 234.961C361.617 207.919 331.275 205.949 331.275 205.949Z" fill="#F67E7E"/>
<path d="M327.26 278.468C327.26 278.468 326.974 283.555 326.974 288.47C334.317 286.41 340.804 282.046 345.481 276.02C338.636 275.6 328.274 275.772 327.26 278.468Z" fill="#F67E7E"/>
<path d="M314.298 272.788C315.512 271.351 317.062 270.234 318.81 269.537C320.416 268.894 322.157 268.658 323.876 268.849C325.58 269.078 327.199 269.736 328.58 270.761C330.085 271.898 331.287 273.39 332.078 275.102C329.262 273.971 326.342 273.119 323.36 272.559C320.339 272.333 317.303 272.41 314.298 272.788Z" fill="white"/>
<path d="M338.674 251.274C339.082 251.311 339.489 251.185 339.804 250.923C340.119 250.661 340.318 250.285 340.357 249.877C340.384 249.543 340.299 249.21 340.115 248.929C339.932 248.649 339.66 248.438 339.344 248.328C339.556 248.118 339.811 247.954 340.091 247.849C340.371 247.743 340.67 247.698 340.969 247.716C342.517 247.85 343.588 250.05 343.359 252.612C343.129 255.175 341.676 257.145 340.108 256.992C338.541 256.839 337.489 254.659 337.718 252.096C337.757 251.708 337.828 251.325 337.929 250.948C338.137 251.133 338.398 251.246 338.674 251.274Z" fill="#303649"/>
<path d="M335.94 240.315C336.049 241.076 336.316 241.806 336.724 242.457C337.128 243.168 337.637 243.813 338.235 244.37C338.958 245.01 339.804 245.498 340.72 245.804C341.672 246.108 342.684 246.167 343.664 245.976C344.11 245.9 344.541 245.758 344.945 245.555C345.307 245.406 345.643 245.199 345.94 244.943C346.402 244.63 346.804 244.234 347.125 243.777L347.469 243.261L346.838 243.375C346.619 243.414 346.402 243.466 346.188 243.528C345.94 243.624 345.634 243.528 345.347 243.681C344.717 243.797 344.075 243.841 343.435 243.815C342.783 243.789 342.139 243.667 341.523 243.452C340.212 242.985 338.97 242.342 337.833 241.539L335.94 240.315Z" fill="#303649"/>
<path d="M310.799 247.602C311.204 247.634 311.605 247.505 311.916 247.244C312.227 246.983 312.423 246.61 312.462 246.206C312.49 245.874 312.408 245.542 312.228 245.262C312.048 244.982 311.781 244.769 311.468 244.657C311.678 244.447 311.929 244.282 312.205 244.174C312.482 244.065 312.777 244.015 313.074 244.025C314.623 244.178 315.693 246.378 315.464 248.94C315.234 251.503 313.781 253.473 312.233 253.32C310.684 253.167 309.594 250.987 309.824 248.424C309.863 248.036 309.933 247.653 310.034 247.277C310.252 247.457 310.518 247.57 310.799 247.602Z" fill="#303649"/>
<path d="M319.785 238.154C319.474 238.877 319.019 239.528 318.446 240.067C317.89 240.634 317.244 241.106 316.535 241.463C315.676 241.89 314.739 242.137 313.781 242.19C312.776 242.236 311.776 242.025 310.875 241.578C310.468 241.39 310.094 241.138 309.766 240.832C309.415 240.603 309.116 240.303 308.887 239.952C308.518 239.517 308.233 239.018 308.046 238.479C307.912 238.097 307.854 237.887 307.854 237.887L308.428 238.154L309.021 238.479C309.268 238.616 309.524 238.737 309.786 238.843C310.36 239.119 310.962 239.33 311.583 239.474C312.239 239.634 312.915 239.698 313.59 239.665C314.977 239.55 316.344 239.268 317.663 238.824L319.785 238.154Z" fill="#303649"/>
<path d="M327.413 247.391C327.413 247.391 325.062 258.502 321.372 260.128C317.682 261.754 323.284 264.431 329.019 263.704C329.019 263.704 323.513 262.289 324.603 260.319C325.693 258.35 329.058 252.44 327.413 247.391Z" fill="#F67E7E"/>
<path d="M332.021 201.703C332.021 201.703 292.865 193.671 291.871 234.846C333.933 238.785 348.234 218.246 348.234 218.246C348.234 218.246 351.962 239.091 362.114 244.37C371.98 204.343 332.021 201.703 332.021 201.703Z" fill="#3E435B"/>
<path d="M234.323 399.544C234.323 399.544 230.059 418.668 234.705 424.903C243.156 436.377 338.273 440.202 338.273 440.202L330.166 419.854L268.221 406.333L234.323 399.544Z" fill="#F8AB98"/>
<path d="M234.323 399.544L268.163 406.371L233.099 406.926C233.692 402.738 234.323 399.544 234.323 399.544Z" fill="#F67E7E"/>
<path d="M325.1 415.092C325.1 415.092 324.947 409.603 331.103 410.196L334.927 410.579C335.511 410.644 336.075 410.827 336.586 411.116C337.097 411.404 337.545 411.794 337.902 412.26C338.259 412.726 338.518 413.259 338.664 413.828C338.81 414.397 338.839 414.99 338.751 415.57L338.273 418.649L325.1 415.092Z" fill="#F67E7E"/>
<path d="M343.301 416.182C343.301 416.182 326.228 412.778 324.45 414.27C322.672 415.761 318.714 437.792 322.92 439.361C327.127 440.929 340.529 442.057 341.638 440.202C342.747 438.347 346.838 418.152 343.301 416.182Z" fill="#F8AB98"/>
<path d="M247.228 318.361C242.869 331.997 233.539 381.261 229.677 401.915L269.712 407.098C274.721 389.465 280.992 335.631 285.466 322.951C293.267 300.824 284.395 286.481 267.647 288.757C254.627 290.555 247.228 318.361 247.228 318.361Z" fill="#F16358"/>
<path d="M335.539 428.288C335.539 427.408 344.181 427.752 344.219 427.752C343.932 430.085 343.531 432.438 343.129 434.465L343.875 430.315C343.875 430.315 335.462 429.282 335.539 428.288Z" fill="#F67E7E"/>
<path d="M342.67 436.511C342.67 436.511 335.462 435.345 335.252 434.847C335.042 434.35 343.072 434.541 343.11 434.541C342.957 435.249 342.823 435.899 342.67 436.511Z" fill="#F67E7E"/>
<path d="M336.839 421.632C336.629 420.848 341.733 420.963 344.659 421.097C344.659 421.728 344.659 422.397 344.659 423.009C344.525 423.086 337.145 422.742 336.839 421.632Z" fill="#F67E7E"/>
<path d="M328.006 280.476C328.006 280.476 326.993 297.86 328.79 299.409C330.587 300.958 352.88 301.743 353.836 297.497C354.792 293.251 354.065 279.673 352.058 278.851C350.05 278.028 329.421 276.613 328.006 280.476Z" fill="#F8AB98"/>
<path d="M341.026 286.386C340.127 286.386 339.286 277.914 339.286 277.875C341.638 277.875 344.009 277.875 346.073 278.028L341.867 277.856C341.867 277.856 341.925 286.347 341.026 286.386Z" fill="#F67E7E"/>
<path d="M348.177 278.2C348.177 278.2 348.004 285.506 347.546 285.85C347.087 286.194 346.169 278.2 346.169 278.2H348.177Z" fill="#F67E7E"/>
<path d="M334.258 286.022C333.493 286.347 332.9 281.28 332.633 278.373C333.264 278.373 333.914 278.181 334.545 278.124C334.621 278.201 335.309 285.583 334.258 286.022Z" fill="#F67E7E"/>
<path d="M304.7 235.381C304.7 235.381 291.221 238.02 296.613 262.366C302.004 286.711 286.135 261.543 286.135 261.543L285.026 244.446C285.026 244.446 282.216 223.601 288.334 222.798C294.452 221.994 302.253 218.456 304.7 222.798C307.147 227.139 304.7 235.381 304.7 235.381Z" fill="#3E435B"/>
<path d="M271.375 400.232L231.225 394.266L229.772 401.915L269.808 407.098C270.247 405.243 270.802 402.891 271.375 400.232Z" fill="#F37973"/>
</svg>
